# xmcd
#
# Track frame offsets: 
#        150
#        18067
#        42288
#        56824
#        71564
#        85667
#        100683
#        123327
#        147124
#        163464
#        178253
#        192169
#        206947
#        228514
#        241447
#        260419
#
# Disc length: 3637 seconds
#
# Revision: 0
# Processed by: cddbd v1.5.2PL0 Copyright (c) Steve Scherf et al.
# Submitted via: ExactAudioCopy v1.3
#
DISCID=e40e3310
DTITLE=James Brown - The Ultimate Collection
DYEAR=2018
DGENRE=Soul
TTITLE0=It's Too Funky In Here
TTITLE1=Doing It To Death
TTITLE2=The Boss
TTITLE3=Make It Funky
TTITLE4=Hot Pants
TTITLE5=Soul Power
TTITLE6=Super Bad
TTITLE7=Get Up - Sex Machine (Medley)
TTITLE8=Hey America
TTITLE9=Mother Popcorn
TTITLE10=I Don't Want Nobody To Give Me Nothing
TTITLE11=Give It Up Or Turn It Loose
TTITLE12=Say It Loud – I'm Black And I'm Proud
TTITLE13=Licking Stick – Licking Stick
TTITLE14=There Was A Time
TTITLE15=Money Won't Change You
EXTD=
EXTT0=
EXTT1=
EXTT2=
EXTT3=
EXTT4=
EXTT5=
EXTT6=
EXTT7=
EXTT8=
EXTT9=
EXTT10=
EXTT11=
EXTT12=
EXTT13=
EXTT14=
EXTT15=
PLAYORDER=
